<svg width="48" height="48" viewBox="0 0 48 48" fill="none" xmlns="http://www.w3.org/2000/svg">
<path d="M1.35187 28.791L8.93974 16H13.4202L6.91631 27.0566H9.66636L13.6571 20.3359H17.8771L12.2639 30.0918C11.1077 32.1152 8.93974 32.1152 8.00029 32.1152H3.88116C0.990544 32.1152 0.556954 30.164 1.35187 28.791Z" fill="#7DCB32"/>
<path d="M19.1292 32.1152H14.9378L22.5133 19.1797H19.9117L21.7307 16H33.7006L31.7624 19.1797H26.7761L19.1292 32.1152Z" fill="#7DCB32"/>
<path d="M30.6376 21.3476H27.3563L24.7833 25.6836H28.0647L30.6376 21.3476Z" fill="#7DCB32"/>
<path d="M33.1486 26.8398L33.799 29.4414L41.6105 16H46L36.6174 32.1152H30.4876L29.174 26.8398H33.1486Z" fill="#7DCB32"/>
</svg>
