<svg width="48" height="48" viewBox="0 0 48 48" fill="none" xmlns="http://www.w3.org/2000/svg">
<path d="M10.631 17.9975C10.8524 18.6663 11.3517 19.1222 11.8808 19.5272C12.6502 20.1161 13.4579 20.6549 14.2499 21.2143C14.5087 21.3971 14.7515 21.5985 14.933 21.8602C15.0824 22.0755 15.1675 22.323 14.9626 22.5375C14.7611 22.7484 14.4949 22.8276 14.2129 22.6819C13.741 22.438 13.4064 22.029 13.0339 21.6683C12.5725 21.2216 12.1111 20.7759 11.5881 20.4005C11.4553 20.3052 11.3153 20.2158 11.1683 20.1449C10.5021 19.8236 10.1847 19.9377 9.84777 20.6163C9.65308 20.5733 9.65926 20.4069 9.65539 20.2696C9.64411 19.8725 9.65465 19.4749 9.64683 19.0777C9.633 18.3738 9.21555 18.0639 8.52926 18.2494C7.67355 18.4808 7.06142 19.0697 6.46707 19.6786C6.24152 19.9097 6.03473 20.1593 5.78917 20.3795C5.94089 19.3279 6.32425 18.4127 7.25372 17.8034C7.38403 17.7179 7.61617 17.6787 7.58472 17.4872C7.55542 17.3087 7.35135 17.2319 7.18152 17.1732C6.32071 16.8758 5.44961 16.7722 4.55389 17.0479C5.10576 16.4946 5.80918 16.3126 6.54495 16.2206C6.92535 16.173 7.31003 16.1606 7.6924 16.1285C7.96142 16.1058 8.17364 15.9738 8.2562 15.7189C8.33968 15.4612 8.17306 15.2794 7.98562 15.124C7.52727 14.7441 7.00314 14.4809 6.45547 14.2597C6.4134 14.1918 6.35742 14.1539 6.27371 14.1771C6.24267 14.1603 6.21164 14.1434 6.1806 14.1268C6.18241 14.0832 6.18406 14.0393 6.18579 13.9955C7.13304 14.1191 8.04217 14.4393 8.99527 14.5358C9.33673 14.5703 9.67449 14.6328 10.0113 14.5112C10.3316 14.3957 10.3962 14.2269 10.1833 13.9643C10.0379 13.7849 9.85123 13.6394 9.68576 13.476C8.36832 12.1742 7.36485 10.6801 6.91571 8.86091C6.76606 8.25463 6.71173 7.63155 6.80862 7C7.0466 7.66531 7.19157 8.35629 7.48364 9.00365C8.29983 10.813 9.59184 12.146 11.3941 12.9706C11.6735 13.0985 12.0478 13.3363 12.306 13.0344C12.546 12.7538 12.3043 12.4006 12.1699 12.1133C11.6573 11.0164 11.3822 9.87163 11.3876 8.65923C11.3896 8.21948 11.4755 7.79611 11.6496 7.37027C11.6979 7.79438 11.7321 8.22071 11.7971 8.64235C12.0552 10.3157 12.7415 11.8212 13.7812 13.1313C14.5058 14.0442 14.9811 14.9715 14.9903 16.1685C14.999 17.285 15.6349 18.1432 16.4472 18.8651C16.9082 19.2749 17.4171 19.6168 17.9547 19.9213C18.4869 20.2226 18.6778 20.8881 18.4342 21.5011C18.1872 22.1224 17.1056 23.2308 16.4289 23.5492C16.4352 22.0585 15.5314 21.1952 14.3603 20.5008C13.1758 19.7984 11.9193 19.1981 10.9563 18.1714C10.9119 18.1241 10.8853 18.0602 10.8505 18.0042C10.7984 17.8316 10.6943 17.6952 10.5548 17.5342C10.5295 17.7311 10.5139 17.8765 10.631 17.9975ZM13.7232 17.7005C13.6825 17.4534 13.4944 17.3834 13.293 17.3238C12.7401 17.1602 12.3037 16.8618 12.1134 16.2862C12.0931 16.2247 12.0617 16.1435 12.0851 16.096C12.1313 16.0021 12.2254 16.0457 12.302 16.0709C12.5101 16.1391 12.7175 16.2092 12.9515 16.2874C12.5995 15.5038 11.747 15.1201 10.9496 15.3897C11.2754 15.5815 11.4225 15.8967 11.4893 16.2041C11.6792 17.078 12.7955 17.654 13.7232 17.7005ZM16.845 21.887C16.8701 21.3857 16.7457 20.9858 16.6414 20.5914C16.5959 20.4195 16.4013 20.4549 16.2529 20.5076C16.1161 20.5563 16.0396 20.6602 16.1104 20.7906C16.306 21.1507 16.4687 21.5359 16.845 21.887ZM17.4757 21.3861C17.5376 21.4669 17.398 21.6629 17.6166 21.6449C17.832 21.627 18.1124 20.9015 17.9905 20.7112C17.9316 20.6193 17.8617 20.5257 17.7336 20.5502C17.6114 20.5736 17.6224 20.6882 17.6032 20.7777C17.5605 20.9764 17.5197 21.1757 17.4757 21.3861Z" fill="white"/>
<path d="M33.6361 40.4931C30.5986 40.1499 27.88 39.047 25.4894 37.1491C25.7455 37.1433 25.7864 37.1663 26.0853 37.3532C28.259 38.7127 30.6088 39.5252 33.1814 39.6881C35.3294 39.8241 37.4196 39.5536 39.4545 38.8733C40.4267 38.5483 41.3724 38.1527 42.2647 37.6345C42.5388 37.4753 42.4852 37.3726 42.2827 37.2406C41.9719 37.0381 41.6503 36.8546 41.2457 36.7978C43.1639 36.5074 44.7052 35.5568 46 34.1416C46.0053 35.5425 44.6795 38.7378 43.1475 39.8757C43.2256 39.436 43.3219 39.0347 43.2596 38.618C43.2224 38.3693 43.1819 38.2615 42.9175 38.4324C40.6916 39.8714 38.2461 40.7585 35.6557 41.2501C32.5456 41.8405 29.4354 41.7968 26.3478 41.0924C24.9192 40.7665 23.5329 40.2933 22.2122 39.6454C22.1019 39.5913 21.9854 39.5501 21.8748 39.4966C21.6548 39.3902 21.6031 39.5055 21.618 39.6936C21.6452 40.0386 21.7599 40.3617 21.8808 40.6822C21.9132 40.7681 22.0004 40.8609 21.8852 40.9315C21.8029 40.9819 21.7316 40.8927 21.6711 40.8455C21.104 40.4045 20.8055 39.7942 20.6323 39.12C20.5607 38.8413 20.4123 38.6804 20.1677 38.5406C19.7654 38.3107 19.3718 38.0566 19.0081 37.7702C18.6948 37.5234 18.5672 37.7012 18.4767 37.952C18.2848 38.4842 18.3601 39.0333 18.4129 39.5798C18.4394 39.8557 18.567 40.1318 18.4302 40.4524C17.8807 40.06 17.6153 39.5095 17.4005 38.9329C17.1193 38.1782 17.0161 37.3911 17.0645 36.5886C17.0808 36.3207 16.9984 36.1207 16.817 35.9294C16.326 35.4116 15.7697 34.9667 15.2403 34.4919C15.1491 34.4101 15.0394 34.3506 15.0391 34.1846C15.4634 34.1969 15.8119 34.4099 16.1483 34.5934C18.0442 35.6269 19.9219 36.6941 21.8131 37.7362C24.2787 39.0946 26.8857 40.0403 29.6853 40.4365C30.9967 40.622 32.3063 40.629 33.6361 40.4931ZM43.9713 36.3447C43.4164 36.5389 42.9798 36.6916 42.5431 36.8444C42.7595 36.9223 42.8211 37.3012 43.0715 37.1746C43.4009 37.0081 43.7126 36.7846 43.9713 36.3447Z" fill="white"/>
<path d="M22.7296 34.9421C20.56 34.2653 18.4424 33.4579 16.4195 32.4157C14.5396 31.4472 12.754 30.3492 11.3904 28.684C10.5114 27.6107 9.82933 26.4168 9.23243 25.1699C8.94332 24.5659 8.67612 23.9503 8.31943 23.3807C7.72928 22.438 6.97918 22.334 6.15459 23.0971C5.69451 23.523 5.27213 23.9902 4.80513 24.4079C4.30578 24.8547 3.66015 24.6553 3.46217 24.0035C3.27637 23.3919 3.37738 22.7781 3.53856 22.1804C3.84611 21.0397 4.35253 19.9782 4.88506 18.9292C4.92704 18.8466 4.99636 18.7778 5.11457 18.6206C5.04599 19.0632 4.98343 19.4129 4.93923 19.765C4.86415 20.3627 4.76158 20.9601 4.86917 21.5654C4.90572 21.771 4.93799 22.0033 5.14791 22.085C5.40071 22.1832 5.60206 21.993 5.75855 21.8347C6.12281 21.4661 6.46181 21.072 6.80368 20.6819C7.41021 19.9898 7.91655 19.9959 8.48291 20.713C9.10171 21.4966 9.41304 22.4434 9.8369 23.3267C11.5295 26.8537 13.8766 29.7916 17.2486 31.8647C19.0698 32.9842 20.9477 33.9809 22.9205 34.8007C22.9057 34.9139 22.8034 34.9087 22.7296 34.9421Z" fill="white"/>
<path d="M39.8671 9.87114C39.2163 10.2636 38.5367 10.5627 37.8654 10.8737C36.402 11.5517 34.9145 12.1721 33.3798 12.6747C31.5499 13.274 29.6928 13.7206 27.7506 13.6963C26.2783 13.6778 24.8334 13.4412 23.3947 13.1487C22.7243 13.0124 22.0505 12.8848 21.3726 12.7954C20.5041 12.6809 19.953 13.0871 19.761 13.9436C19.6653 14.3705 19.5876 14.8013 19.506 15.2312C19.2794 16.4244 17.7823 16.694 16.957 16.2843C16.3589 15.9874 15.9072 15.5345 15.4657 15.0092C15.7199 14.931 15.8479 15.1099 15.9939 15.1984C16.327 15.4004 16.6717 15.5567 17.0641 15.5803C17.5487 15.6095 17.8674 15.4107 18.0729 14.9657C18.302 14.4696 18.3635 13.945 18.3707 13.404C18.3787 12.8024 18.3193 12.197 18.4453 11.6C18.6001 10.8658 19.0191 10.5684 19.7553 10.7351C21.0361 11.0251 22.3061 11.3654 23.599 11.5998C26.5003 12.1259 29.4025 12.3628 32.3383 11.804C34.6562 11.3628 36.9099 10.7087 39.1473 9.98054C39.2894 9.93427 39.4347 9.88587 39.5818 9.87138C39.6648 9.86315 39.7462 9.76922 39.8671 9.87114Z" fill="white"/>
<path d="M3.47279 20.4789C3.37886 21.0644 3.08671 21.5835 2.91079 22.143C2.25463 24.2306 2.09468 26.3545 2.32855 28.5199C2.35785 28.7913 2.45079 28.8653 2.74056 28.8525C3.91838 28.8007 5.03727 28.9756 5.97637 29.9977C6.10767 28.1947 6.31223 26.5198 7.45902 25.1488C7.2752 25.743 7.14111 26.3437 7.04315 26.9579C6.85603 28.1309 6.98519 29.2801 7.20227 30.4297C7.26854 30.7808 7.42009 30.8843 7.8181 30.8233C9.02285 30.6387 10.1863 30.9243 11.334 31.2706C14.0879 32.1017 16.6166 33.4281 19.1201 34.8096C19.0908 34.8437 19.0618 34.8779 19.0327 34.9121C17.1311 34.1066 15.2076 33.3616 13.2196 32.7924C12.3228 32.5356 11.4111 32.3475 10.4894 32.2127C8.88496 31.9781 7.46437 32.2943 6.3678 33.731C6.30087 33.3753 6.25922 33.1034 6.19772 32.836C5.96023 31.8027 5.49142 30.9428 4.43683 30.5328C3.78116 30.2779 3.11849 30.3531 2.4554 30.4949C2.36238 30.5148 2.27339 30.5528 2.18161 30.5794C1.3282 30.8265 1.32573 30.8267 1.20925 29.9558C1.04741 28.7453 0.918746 27.532 1.0619 26.3101C1.21674 24.9881 1.71239 23.7721 2.2715 22.5817C2.56118 21.965 2.90042 21.3717 3.21455 20.7663C3.27637 20.6472 3.32626 20.522 3.46917 20.476C3.4695 20.476 3.47279 20.4789 3.47279 20.4789Z" fill="white"/>
<path d="M19.5084 17.7676C20.6154 18.1628 21.627 18.7176 22.4713 19.5484C22.6083 19.6833 22.6957 19.7091 22.813 19.5163C23.7288 18.0101 25.0377 17.2217 26.8354 17.3398C26.8563 17.3412 26.8789 17.3147 26.9574 17.2663C25.7395 15.7286 23.9451 15.1722 22.2192 14.392C22.7302 14.3108 23.1419 14.5282 23.5519 14.6353C24.9345 14.9965 26.2549 15.5176 27.395 16.4183C27.6508 16.6205 27.8454 17.0462 28.119 17.0193C28.3407 16.9974 28.5056 16.5636 28.7267 16.3435C29.6885 15.3856 30.8533 14.7236 32.0544 14.1252C33.7821 13.2643 35.5583 12.5175 37.4006 11.9339C37.5958 11.8721 37.7574 11.6736 38.0411 11.811C37.3916 12.1115 36.7634 12.3865 36.1491 12.6893C34.2349 13.6331 32.3338 14.6006 30.707 16.015C29.7965 16.8067 29.2883 17.7764 29.4181 19.0134C29.4463 19.2813 29.3431 19.2345 29.164 19.1764C28.6049 18.9954 28.0427 18.8452 27.4496 18.782C25.5757 18.5822 23.9973 19.4045 23.1708 21.1019C22.9883 21.4768 22.9168 21.3764 22.7442 21.1198C21.7707 19.6728 20.5123 18.5464 18.9417 17.7774C19.0566 17.586 19.2221 17.7778 19.3548 17.7228C19.3943 17.7343 19.4338 17.7458 19.473 17.7573C19.4729 17.7573 19.4856 17.7852 19.4856 17.7852L19.5084 17.7676Z" fill="white"/>
<path d="M30.5718 32.4984V34.7307C30.5718 34.9837 30.5104 35.2031 30.3876 35.3889C30.2648 35.5732 30.0886 35.7137 29.859 35.8105C29.6294 35.9074 29.358 35.9558 29.0447 35.9558C28.5713 35.9558 28.1984 35.848 27.9261 35.6325C27.6538 35.417 27.515 35.1219 27.5096 34.7471V32.4984H28.4521V34.7635C28.4627 35.1367 28.6603 35.3233 29.0447 35.3233C29.2387 35.3233 29.3856 35.2765 29.4852 35.1828C29.5849 35.0891 29.6348 34.9368 29.6348 34.726V32.4984H30.5718Z" fill="white"/>
<path d="M34.2107 33.1332H33.044V35.9089H32.1069V33.1332H30.9616V32.4984H34.2107V33.1332Z" fill="white"/>
<path d="M37.0566 34.5503H35.5455V35.9089H34.6085V32.4984H37.2088V33.1332H35.5455V33.9179H37.0566V34.5503Z" fill="white"/>
<path d="M39.107 34.9813L39.8812 32.4984H40.9277L39.6195 35.9089H38.5944L37.2969 32.4984H38.3354L39.107 34.9813Z" fill="white"/>
</svg>
